<?xml version="1.0" encoding="utf-8" standalone="no"?>
<!DOCTYPE svg PUBLIC "-//W3C//DTD SVG 1.1//EN"
  "http://www.w3.org/Graphics/SVG/1.1/DTD/svg11.dtd">
<!-- Created with matplotlib (https://matplotlib.org/) -->
<svg height="576pt" version="1.1" viewBox="0 0 576 576" width="576pt" xmlns="http://www.w3.org/2000/svg" xmlns:xlink="http://www.w3.org/1999/xlink">
 <metadata>
  <rdf:RDF xmlns:cc="http://creativecommons.org/ns#" xmlns:dc="http://purl.org/dc/elements/1.1/" xmlns:rdf="http://www.w3.org/1999/02/22-rdf-syntax-ns#">
   <cc:Work>
    <dc:type rdf:resource="http://purl.org/dc/dcmitype/StillImage"/>
    <dc:date>2020-11-23T23:36:45.993248</dc:date>
    <dc:format>image/svg+xml</dc:format>
    <dc:creator>
     <cc:Agent>
      <dc:title>Matplotlib v3.3.2, https://matplotlib.org/</dc:title>
     </cc:Agent>
    </dc:creator>
   </cc:Work>
  </rdf:RDF>
 </metadata>
 <defs>
  <style type="text/css">*{stroke-linecap:butt;stroke-linejoin:round;}</style>
 </defs>
 <g id="figure_1">
  <g id="patch_1">
   <path d="M 0 576 
L 576 576 
L 576 0 
L 0 0 
z
" style="fill:none;"/>
  </g>
  <g id="axes_1">
   <g id="patch_2">
    <path d="M 72 504 
L 518.4 504 
L 518.4 69.12 
L 72 69.12 
z
" style="fill:#ffffff;"/>
   </g>
   <g id="matplotlib.axis_1">
    <g id="xtick_1">
     <g id="line2d_1">
      <defs>
       <path d="M 0 0 
L 0 3.5 
" id="m534e16f5a9" style="stroke:#000000;stroke-width:0.8;"/>
      </defs>
      <g>
       <use style="stroke:#000000;stroke-width:0.8;" x="75.681896" xlink:href="#m534e16f5a9" y="504"/>
      </g>
     </g>
     <g id="text_1">
      <!-- −0.2 -->
      <g transform="translate(63.540489 518.598438)scale(0.1 -0.1)">
       <defs>
        <path d="M 10.59375 35.5 
L 73.1875 35.5 
L 73.1875 27.203125 
L 10.59375 27.203125 
z
" id="DejaVuSans-8722"/>
        <path d="M 31.78125 66.40625 
Q 24.171875 66.40625 20.328125 58.90625 
Q 16.5 51.421875 16.5 36.375 
Q 16.5 21.390625 20.328125 13.890625 
Q 24.171875 6.390625 31.78125 6.390625 
Q 39.453125 6.390625 43.28125 13.890625 
Q 47.125 21.390625 47.125 36.375 
Q 47.125 51.421875 43.28125 58.90625 
Q 39.453125 66.40625 31.78125 66.40625 
z
M 31.78125 74.21875 
Q 44.046875 74.21875 50.515625 64.515625 
Q 56.984375 54.828125 56.984375 36.375 
Q 56.984375 17.96875 50.515625 8.265625 
Q 44.046875 -1.421875 31.78125 -1.421875 
Q 19.53125 -1.421875 13.0625 8.265625 
Q 6.59375 17.96875 6.59375 36.375 
Q 6.59375 54.828125 13.0625 64.515625 
Q 19.53125 74.21875 31.78125 74.21875 
z
" id="DejaVuSans-48"/>
        <path d="M 10.6875 12.40625 
L 21 12.40625 
L 21 0 
L 10.6875 0 
z
" id="DejaVuSans-46"/>
        <path d="M 19.1875 8.296875 
L 53.609375 8.296875 
L 53.609375 0 
L 7.328125 0 
L 7.328125 8.296875 
Q 12.9375 14.109375 22.625 23.890625 
Q 32.328125 33.6875 34.8125 36.53125 
Q 39.546875 41.84375 41.421875 45.53125 
Q 43.3125 49.21875 43.3125 52.78125 
Q 43.3125 58.59375 39.234375 62.25 
Q 35.15625 65.921875 28.609375 65.921875 
Q 23.96875 65.921875 18.8125 64.3125 
Q 13.671875 62.703125 7.8125 59.421875 
L 7.8125 69.390625 
Q 13.765625 71.78125 18.9375 73 
Q 24.125 74.21875 28.421875 74.21875 
Q 39.75 74.21875 46.484375 68.546875 
Q 53.21875 62.890625 53.21875 53.421875 
Q 53.21875 48.921875 51.53125 44.890625 
Q 49.859375 40.875 45.40625 35.40625 
Q 44.1875 33.984375 37.640625 27.21875 
Q 31.109375 20.453125 19.1875 8.296875 
z
" id="DejaVuSans-50"/>
       </defs>
       <use xlink:href="#DejaVuSans-8722"/>
       <use x="83.789062" xlink:href="#DejaVuSans-48"/>
       <use x="147.412109" xlink:href="#DejaVuSans-46"/>
       <use x="179.199219" xlink:href="#DejaVuSans-50"/>
      </g>
     </g>
    </g>
    <g id="xtick_2">
     <g id="line2d_2">
      <g>
       <use style="stroke:#000000;stroke-width:0.8;" x="142.11795" xlink:href="#m534e16f5a9" y="504"/>
      </g>
     </g>
     <g id="text_2">
      <!-- 0.0 -->
      <g transform="translate(134.166387 518.598438)scale(0.1 -0.1)">
       <use xlink:href="#DejaVuSans-48"/>
       <use x="63.623047" xlink:href="#DejaVuSans-46"/>
       <use x="95.410156" xlink:href="#DejaVuSans-48"/>
      </g>
     </g>
    </g>
    <g id="xtick_3">
     <g id="line2d_3">
      <g>
       <use style="stroke:#000000;stroke-width:0.8;" x="208.554004" xlink:href="#m534e16f5a9" y="504"/>
      </g>
     </g>
     <g id="text_3">
      <!-- 0.2 -->
      <g transform="translate(200.602442 518.598438)scale(0.1 -0.1)">
       <use xlink:href="#DejaVuSans-48"/>
       <use x="63.623047" xlink:href="#DejaVuSans-46"/>
       <use x="95.410156" xlink:href="#DejaVuSans-50"/>
      </g>
     </g>
    </g>
    <g id="xtick_4">
     <g id="line2d_4">
      <g>
       <use style="stroke:#000000;stroke-width:0.8;" x="274.990059" xlink:href="#m534e16f5a9" y="504"/>
      </g>
     </g>
     <g id="text_4">
      <!-- 0.4 -->
      <g transform="translate(267.038496 518.598438)scale(0.1 -0.1)">
       <defs>
        <path d="M 37.796875 64.3125 
L 12.890625 25.390625 
L 37.796875 25.390625 
z
M 35.203125 72.90625 
L 47.609375 72.90625 
L 47.609375 25.390625 
L 58.015625 25.390625 
L 58.015625 17.1875 
L 47.609375 17.1875 
L 47.609375 0 
L 37.796875 0 
L 37.796875 17.1875 
L 4.890625 17.1875 
L 4.890625 26.703125 
z
" id="DejaVuSans-52"/>
       </defs>
       <use xlink:href="#DejaVuSans-48"/>
       <use x="63.623047" xlink:href="#DejaVuSans-46"/>
       <use x="95.410156" xlink:href="#DejaVuSans-52"/>
      </g>
     </g>
    </g>
    <g id="xtick_5">
     <g id="line2d_5">
      <g>
       <use style="stroke:#000000;stroke-width:0.8;" x="341.426113" xlink:href="#m534e16f5a9" y="504"/>
      </g>
     </g>
     <g id="text_5">
      <!-- 0.6 -->
      <g transform="translate(333.47455 518.598438)scale(0.1 -0.1)">
       <defs>
        <path d="M 33.015625 40.375 
Q 26.375 40.375 22.484375 35.828125 
Q 18.609375 31.296875 18.609375 23.390625 
Q 18.609375 15.53125 22.484375 10.953125 
Q 26.375 6.390625 33.015625 6.390625 
Q 39.65625 6.390625 43.53125 10.953125 
Q 47.40625 15.53125 47.40625 23.390625 
Q 47.40625 31.296875 43.53125 35.828125 
Q 39.65625 40.375 33.015625 40.375 
z
M 52.59375 71.296875 
L 52.59375 62.3125 
Q 48.875 64.0625 45.09375 64.984375 
Q 41.3125 65.921875 37.59375 65.921875 
Q 27.828125 65.921875 22.671875 59.328125 
Q 17.53125 52.734375 16.796875 39.40625 
Q 19.671875 43.65625 24.015625 45.921875 
Q 28.375 48.1875 33.59375 48.1875 
Q 44.578125 48.1875 50.953125 41.515625 
Q 57.328125 34.859375 57.328125 23.390625 
Q 57.328125 12.15625 50.6875 5.359375 
Q 44.046875 -1.421875 33.015625 -1.421875 
Q 20.359375 -1.421875 13.671875 8.265625 
Q 6.984375 17.96875 6.984375 36.375 
Q 6.984375 53.65625 15.1875 63.9375 
Q 23.390625 74.21875 37.203125 74.21875 
Q 40.921875 74.21875 44.703125 73.484375 
Q 48.484375 72.75 52.59375 71.296875 
z
" id="DejaVuSans-54"/>
       </defs>
       <use xlink:href="#DejaVuSans-48"/>
       <use x="63.623047" xlink:href="#DejaVuSans-46"/>
       <use x="95.410156" xlink:href="#DejaVuSans-54"/>
      </g>
     </g>
    </g>
    <g id="xtick_6">
     <g id="line2d_6">
      <g>
       <use style="stroke:#000000;stroke-width:0.8;" x="407.862167" xlink:href="#m534e16f5a9" y="504"/>
      </g>
     </g>
     <g id="text_6">
      <!-- 0.8 -->
      <g transform="translate(399.910605 518.598438)scale(0.1 -0.1)">
       <defs>
        <path d="M 31.78125 34.625 
Q 24.75 34.625 20.71875 30.859375 
Q 16.703125 27.09375 16.703125 20.515625 
Q 16.703125 13.921875 20.71875 10.15625 
Q 24.75 6.390625 31.78125 6.390625 
Q 38.8125 6.390625 42.859375 10.171875 
Q 46.921875 13.96875 46.921875 20.515625 
Q 46.921875 27.09375 42.890625 30.859375 
Q 38.875 34.625 31.78125 34.625 
z
M 21.921875 38.8125 
Q 15.578125 40.375 12.03125 44.71875 
Q 8.5 49.078125 8.5 55.328125 
Q 8.5 64.0625 14.71875 69.140625 
Q 20.953125 74.21875 31.78125 74.21875 
Q 42.671875 74.21875 48.875 69.140625 
Q 55.078125 64.0625 55.078125 55.328125 
Q 55.078125 49.078125 51.53125 44.71875 
Q 48 40.375 41.703125 38.8125 
Q 48.828125 37.15625 52.796875 32.3125 
Q 56.78125 27.484375 56.78125 20.515625 
Q 56.78125 9.90625 50.3125 4.234375 
Q 43.84375 -1.421875 31.78125 -1.421875 
Q 19.734375 -1.421875 13.25 4.234375 
Q 6.78125 9.90625 6.78125 20.515625 
Q 6.78125 27.484375 10.78125 32.3125 
Q 14.796875 37.15625 21.921875 38.8125 
z
M 18.3125 54.390625 
Q 18.3125 48.734375 21.84375 45.5625 
Q 25.390625 42.390625 31.78125 42.390625 
Q 38.140625 42.390625 41.71875 45.5625 
Q 45.3125 48.734375 45.3125 54.390625 
Q 45.3125 60.0625 41.71875 63.234375 
Q 38.140625 66.40625 31.78125 66.40625 
Q 25.390625 66.40625 21.84375 63.234375 
Q 18.3125 60.0625 18.3125 54.390625 
z
" id="DejaVuSans-56"/>
       </defs>
       <use xlink:href="#DejaVuSans-48"/>
       <use x="63.623047" xlink:href="#DejaVuSans-46"/>
       <use x="95.410156" xlink:href="#DejaVuSans-56"/>
      </g>
     </g>
    </g>
    <g id="xtick_7">
     <g id="line2d_7">
      <g>
       <use style="stroke:#000000;stroke-width:0.8;" x="474.298222" xlink:href="#m534e16f5a9" y="504"/>
      </g>
     </g>
     <g id="text_7">
      <!-- 1.0 -->
      <g transform="translate(466.346659 518.598438)scale(0.1 -0.1)">
       <defs>
        <path d="M 12.40625 8.296875 
L 28.515625 8.296875 
L 28.515625 63.921875 
L 10.984375 60.40625 
L 10.984375 69.390625 
L 28.421875 72.90625 
L 38.28125 72.90625 
L 38.28125 8.296875 
L 54.390625 8.296875 
L 54.390625 0 
L 12.40625 0 
z
" id="DejaVuSans-49"/>
       </defs>
       <use xlink:href="#DejaVuSans-49"/>
       <use x="63.623047" xlink:href="#DejaVuSans-46"/>
       <use x="95.410156" xlink:href="#DejaVuSans-48"/>
      </g>
     </g>
    </g>
    <g id="text_8">
     <!-- x (m) -->
     <g transform="translate(281.879687 532.276562)scale(0.1 -0.1)">
      <defs>
       <path d="M 54.890625 54.6875 
L 35.109375 28.078125 
L 55.90625 0 
L 45.3125 0 
L 29.390625 21.484375 
L 13.484375 0 
L 2.875 0 
L 24.125 28.609375 
L 4.6875 54.6875 
L 15.28125 54.6875 
L 29.78125 35.203125 
L 44.28125 54.6875 
z
" id="DejaVuSans-120"/>
       <path id="DejaVuSans-32"/>
       <path d="M 31 75.875 
Q 24.46875 64.65625 21.28125 53.65625 
Q 18.109375 42.671875 18.109375 31.390625 
Q 18.109375 20.125 21.3125 9.0625 
Q 24.515625 -2 31 -13.1875 
L 23.1875 -13.1875 
Q 15.875 -1.703125 12.234375 9.375 
Q 8.59375 20.453125 8.59375 31.390625 
Q 8.59375 42.28125 12.203125 53.3125 
Q 15.828125 64.359375 23.1875 75.875 
z
" id="DejaVuSans-40"/>
       <path d="M 52 44.1875 
Q 55.375 50.25 60.0625 53.125 
Q 64.75 56 71.09375 56 
Q 79.640625 56 84.28125 50.015625 
Q 88.921875 44.046875 88.921875 33.015625 
L 88.921875 0 
L 79.890625 0 
L 79.890625 32.71875 
Q 79.890625 40.578125 77.09375 44.375 
Q 74.3125 48.1875 68.609375 48.1875 
Q 61.625 48.1875 57.5625 43.546875 
Q 53.515625 38.921875 53.515625 30.90625 
L 53.515625 0 
L 44.484375 0 
L 44.484375 32.71875 
Q 44.484375 40.625 41.703125 44.40625 
Q 38.921875 48.1875 33.109375 48.1875 
Q 26.21875 48.1875 22.15625 43.53125 
Q 18.109375 38.875 18.109375 30.90625 
L 18.109375 0 
L 9.078125 0 
L 9.078125 54.6875 
L 18.109375 54.6875 
L 18.109375 46.1875 
Q 21.1875 51.21875 25.484375 53.609375 
Q 29.78125 56 35.6875 56 
Q 41.65625 56 45.828125 52.96875 
Q 50 49.953125 52 44.1875 
z
" id="DejaVuSans-109"/>
       <path d="M 8.015625 75.875 
L 15.828125 75.875 
Q 23.140625 64.359375 26.78125 53.3125 
Q 30.421875 42.28125 30.421875 31.390625 
Q 30.421875 20.453125 26.78125 9.375 
Q 23.140625 -1.703125 15.828125 -13.1875 
L 8.015625 -13.1875 
Q 14.5 -2 17.703125 9.0625 
Q 20.90625 20.125 20.90625 31.390625 
Q 20.90625 42.671875 17.703125 53.65625 
Q 14.5 64.65625 8.015625 75.875 
z
" id="DejaVuSans-41"/>
      </defs>
      <use xlink:href="#DejaVuSans-120"/>
      <use x="59.179688" xlink:href="#DejaVuSans-32"/>
      <use x="90.966797" xlink:href="#DejaVuSans-40"/>
      <use x="129.980469" xlink:href="#DejaVuSans-109"/>
      <use x="227.392578" xlink:href="#DejaVuSans-41"/>
     </g>
    </g>
   </g>
   <g id="matplotlib.axis_2">
    <g id="ytick_1">
     <g id="line2d_8">
      <defs>
       <path d="M 0 0 
L -3.5 0 
" id="mc90e9fbfd0" style="stroke:#000000;stroke-width:0.8;"/>
      </defs>
      <g>
       <use style="stroke:#000000;stroke-width:0.8;" x="72" xlink:href="#mc90e9fbfd0" y="446.964118"/>
      </g>
     </g>
     <g id="text_9">
      <!-- −0.8 -->
      <g transform="translate(40.717187 450.763337)scale(0.1 -0.1)">
       <use xlink:href="#DejaVuSans-8722"/>
       <use x="83.789062" xlink:href="#DejaVuSans-48"/>
       <use x="147.412109" xlink:href="#DejaVuSans-46"/>
       <use x="179.199219" xlink:href="#DejaVuSans-56"/>
      </g>
     </g>
    </g>
    <g id="ytick_2">
     <g id="line2d_9">
      <g>
       <use style="stroke:#000000;stroke-width:0.8;" x="72" xlink:href="#mc90e9fbfd0" y="383.977866"/>
      </g>
     </g>
     <g id="text_10">
      <!-- −0.6 -->
      <g transform="translate(40.717187 387.777085)scale(0.1 -0.1)">
       <use xlink:href="#DejaVuSans-8722"/>
       <use x="83.789062" xlink:href="#DejaVuSans-48"/>
       <use x="147.412109" xlink:href="#DejaVuSans-46"/>
       <use x="179.199219" xlink:href="#DejaVuSans-54"/>
      </g>
     </g>
    </g>
    <g id="ytick_3">
     <g id="line2d_10">
      <g>
       <use style="stroke:#000000;stroke-width:0.8;" x="72" xlink:href="#mc90e9fbfd0" y="320.991613"/>
      </g>
     </g>
     <g id="text_11">
      <!-- −0.4 -->
      <g transform="translate(40.717187 324.790832)scale(0.1 -0.1)">
       <use xlink:href="#DejaVuSans-8722"/>
       <use x="83.789062" xlink:href="#DejaVuSans-48"/>
       <use x="147.412109" xlink:href="#DejaVuSans-46"/>
       <use x="179.199219" xlink:href="#DejaVuSans-52"/>
      </g>
     </g>
    </g>
    <g id="ytick_4">
     <g id="line2d_11">
      <g>
       <use style="stroke:#000000;stroke-width:0.8;" x="72" xlink:href="#mc90e9fbfd0" y="258.005361"/>
      </g>
     </g>
     <g id="text_12">
      <!-- −0.2 -->
      <g transform="translate(40.717187 261.80458)scale(0.1 -0.1)">
       <use xlink:href="#DejaVuSans-8722"/>
       <use x="83.789062" xlink:href="#DejaVuSans-48"/>
       <use x="147.412109" xlink:href="#DejaVuSans-46"/>
       <use x="179.199219" xlink:href="#DejaVuSans-50"/>
      </g>
     </g>
    </g>
    <g id="ytick_5">
     <g id="line2d_12">
      <g>
       <use style="stroke:#000000;stroke-width:0.8;" x="72" xlink:href="#mc90e9fbfd0" y="195.019108"/>
      </g>
     </g>
     <g id="text_13">
      <!-- 0.0 -->
      <g transform="translate(49.096875 198.818327)scale(0.1 -0.1)">
       <use xlink:href="#DejaVuSans-48"/>
       <use x="63.623047" xlink:href="#DejaVuSans-46"/>
       <use x="95.410156" xlink:href="#DejaVuSans-48"/>
      </g>
     </g>
    </g>
    <g id="ytick_6">
     <g id="line2d_13">
      <g>
       <use style="stroke:#000000;stroke-width:0.8;" x="72" xlink:href="#mc90e9fbfd0" y="132.032856"/>
      </g>
     </g>
     <g id="text_14">
      <!-- 0.2 -->
      <g transform="translate(49.096875 135.832074)scale(0.1 -0.1)">
       <use xlink:href="#DejaVuSans-48"/>
       <use x="63.623047" xlink:href="#DejaVuSans-46"/>
       <use x="95.410156" xlink:href="#DejaVuSans-50"/>
      </g>
     </g>
    </g>
    <g id="text_15">
     <!-- y (m) -->
     <g transform="translate(34.6375 299.880313)rotate(-90)scale(0.1 -0.1)">
      <defs>
       <path d="M 32.171875 -5.078125 
Q 28.375 -14.84375 24.75 -17.8125 
Q 21.140625 -20.796875 15.09375 -20.796875 
L 7.90625 -20.796875 
L 7.90625 -13.28125 
L 13.1875 -13.28125 
Q 16.890625 -13.28125 18.9375 -11.515625 
Q 21 -9.765625 23.484375 -3.21875 
L 25.09375 0.875 
L 2.984375 54.6875 
L 12.5 54.6875 
L 29.59375 11.921875 
L 46.6875 54.6875 
L 56.203125 54.6875 
z
" id="DejaVuSans-121"/>
      </defs>
      <use xlink:href="#DejaVuSans-121"/>
      <use x="59.179688" xlink:href="#DejaVuSans-32"/>
      <use x="90.966797" xlink:href="#DejaVuSans-40"/>
      <use x="129.980469" xlink:href="#DejaVuSans-109"/>
      <use x="227.392578" xlink:href="#DejaVuSans-41"/>
     </g>
    </g>
   </g>
   <g id="line2d_14">
    <path clip-path="url(#pc6288f37da)" d="M 191.944991 195.019108 
L 191.833894 191.866302 
L 191.5011 188.727556 
L 190.94747 185.613956 
L 190.175686 182.542376 
L 189.188168 179.523733 
L 187.988738 176.571717 
L 186.580777 173.69713 
L 184.971076 170.915967 
L 183.16457 168.238612 
L 181.168372 165.677831 
L 178.992641 163.248166 
L 176.644542 160.959009 
L 174.133895 158.821657 
L 171.471364 156.846808 
L 168.66842 155.044503 
L 165.737299 153.424068 
L 162.69095 151.994064 
L 159.545915 150.763272 
L 156.316615 149.737991 
L 153.014878 148.922938 
L 149.66205 148.324012 
L 146.27073 147.943773 
L 142.856774 147.784612 
L 139.439341 147.847728 
L 136.034513 148.132824 
L 132.661386 148.637994 
L 129.332679 149.361025 
L 126.06699 150.297566 
L 122.879446 151.442642 
L 119.784737 152.790325 
L 116.799748 154.33226 
L 113.935178 156.061883 
L 111.206448 157.968807 
L 108.62543 160.04323 
L 106.203203 162.274667 
L 103.950011 164.652 
L 101.875223 167.163543 
L 99.987305 169.797101 
L 98.293788 172.540035 
L 96.799948 175.382024 
L 95.513077 178.307185 
L 94.436899 181.30473 
L 93.575653 184.361001 
L 92.932594 187.462138 
L 92.509986 190.594146 
L 92.309094 193.742956 
L 92.330314 196.897456 
L 92.57355 200.043581 
L 93.03772 203.1673 
L 93.721496 206.257567 
L 94.622438 209.300453 
L 95.737118 212.282178 
L 97.061128 215.189171 
L 98.589096 218.008136 
L 100.31641 220.728599 
L 102.236343 223.337655 
L 104.341225 225.822784 
L 106.622462 228.171924 
L 109.070562 230.373527 
L 111.672695 232.414809 
L 114.419913 234.287578 
L 117.30029 235.982216 
L 120.301167 237.489852 
L 123.4063 238.801297 
L 126.604471 239.910817 
L 129.878148 240.811358 
L 133.212187 241.498121 
L 136.591093 241.967293 
L 139.99596 242.21594 
L 143.413924 242.242816 
L 146.825789 242.047467 
L 150.2155 241.630811 
L 153.564059 240.995491 
L 156.855862 240.145088 
L 160.075645 239.084178 
L 163.208549 237.8183 
L 166.240191 236.353926 
L 169.154096 234.700036 
L 171.939891 232.863577 
L 174.582648 230.855495 
L 177.070954 228.686013 
L 179.394216 226.366003 
L 181.542703 223.906934 
L 183.507572 221.320808 
L 185.280908 218.6201 
L 186.855739 215.817689 
L 188.227251 212.924054 
L 189.388842 209.955303 
L 190.337261 206.922318 
L 191.068858 203.83887 
L 191.580969 200.71889 
L 191.872096 197.573445 
L 191.94499 195.022076 
L 191.94499 195.022076 
" style="fill:none;stroke:#0000ff;stroke-linecap:square;stroke-width:1.5;"/>
   </g>
   <g id="line2d_15">
    <path clip-path="url(#pc6288f37da)" d="M 324.597644 100.262951 
L 329.716843 102.552839 
L 334.728637 105.037985 
L 336.55333 106.005623 
L 329.722289 102.555406 
L 324.607259 100.267026 
L 319.393903 98.178124 
L 314.089133 96.292078 
L 308.703074 94.613105 
L 303.246579 93.144985 
L 297.729146 91.890525 
L 292.157031 90.851564 
L 286.544045 90.030999 
L 280.896811 89.430029 
L 275.228791 89.050252 
L 269.548894 88.892245 
L 263.863808 88.956388 
L 258.187013 89.242675 
L 252.527609 89.750602 
L 246.897076 90.479013 
L 241.304626 91.4265 
L 235.759295 92.59136 
L 230.271817 93.971107 
L 224.853114 95.562566 
L 219.510156 97.363282 
L 214.253658 99.369246 
L 209.092373 101.576591 
L 206.085365 102.976482 
L 214.248778 99.37122 
L 219.499789 97.367005 
L 224.837175 95.567591 
L 230.253046 93.976222 
L 235.737892 92.596298 
L 241.277897 91.431572 
L 246.868 90.483358 
L 252.497398 89.753913 
L 258.153892 89.244999 
L 263.832109 88.957369 
L 269.513629 88.891957 
L 275.195565 89.048681 
L 280.86285 89.42709 
L 286.508391 90.026502 
L 292.123155 90.845936 
L 297.697564 91.883997 
L 303.221182 93.138686 
L 308.679151 94.606163 
L 314.068243 96.285113 
L 319.376745 98.171641 
L 324.594088 100.261444 
L 324.594088 100.261444 
" style="fill:none;stroke:#000000;stroke-linecap:square;stroke-width:1.5;"/>
   </g>
   <g id="line2d_16">
    <path clip-path="url(#pc6288f37da)" d="M 393.236506 263.501726 
L 391.232862 268.317974 
L 389.021516 273.054679 
L 388.147931 274.792139 
L 391.233766 268.315924 
L 393.238293 263.497159 
L 395.031337 258.608486 
L 396.610829 253.65683 
L 397.974129 248.651869 
L 399.119765 243.600591 
L 400.046165 238.511252 
L 400.752076 233.392248 
L 401.236551 228.252503 
L 401.499085 223.100486 
L 401.539474 217.941144 
L 401.357561 212.784811 
L 400.953625 207.639507 
L 400.328178 202.51298 
L 399.482312 197.414857 
L 398.416745 192.350734 
L 397.133682 187.332076 
L 395.63406 182.363594 
L 393.920371 177.454994 
L 391.994412 172.612814 
L 389.859204 167.84609 
L 387.518226 163.163654 
L 384.973878 158.571515 
L 383.023693 155.334633 
L 387.519291 163.165677 
L 389.861744 167.851451 
L 391.998183 172.621737 
L 393.92452 177.46611 
L 395.638313 182.376668 
L 397.137602 187.34615 
L 398.42133 192.370425 
L 399.48632 197.436178 
L 400.331466 202.535846 
L 400.955923 207.66246 
L 401.358823 212.807034 
L 401.539784 217.96392 
L 401.498473 223.121228 
L 401.234976 228.274177 
L 400.749984 233.410274 
L 400.04351 238.527851 
L 399.117215 243.613064 
L 397.972408 248.658769 
L 396.609141 253.662538 
L 395.030962 258.609579 
L 393.239124 263.495033 
L 393.237815 263.49838 
L 393.237815 263.49838 
" style="fill:none;stroke:#008000;stroke-linecap:square;stroke-width:1.5;"/>
   </g>
   <g id="line2d_17">
    <path clip-path="url(#pc6288f37da)" d="M 359.081723 308.569357 
L 355.074188 312.091511 
L 350.913541 315.452459 
L 346.597959 318.652562 
L 342.147079 321.67653 
L 337.555383 324.527386 
L 332.839211 327.193886 
L 328.002822 329.672973 
L 323.058139 331.95788 
L 318.006735 334.047009 
L 312.869467 335.931239 
L 307.648592 337.60963 
L 302.347931 339.080029 
L 296.982769 340.337332 
L 291.570412 341.377512 
L 286.113259 342.200165 
L 280.618467 342.803658 
L 275.106221 343.185698 
L 269.578449 343.346221 
L 264.045825 343.284555 
L 258.521479 343.000719 
L 253.017173 342.495496 
L 247.542341 341.770019 
L 242.106189 340.825714 
L 236.718546 339.664468 
L 231.38944 338.288657 
L 226.129128 336.701227 
L 220.947717 334.905633 
L 215.853971 332.905358 
L 210.85718 330.704506 
L 207.499197 329.085565 
L 215.847927 332.902842 
L 220.936237 334.901391 
L 226.113713 336.696231 
L 231.369922 338.283194 
L 236.694985 339.658888 
L 242.081982 340.821003 
L 247.518443 341.76636 
L 252.994544 342.492957 
L 258.497168 342.998977 
L 264.019881 343.283742 
L 269.551724 343.346458 
L 275.08112 343.186929 
L 280.597856 342.805502 
L 286.091841 342.202953 
L 291.552095 341.380651 
L 296.970178 340.340015 
L 302.335478 339.083213 
L 307.634697 337.613788 
L 312.860056 335.934475 
L 318.004742 334.047786 
L 323.058358 331.957784 
L 328.00681 329.67103 
L 332.848632 327.188811 
L 337.569758 324.518864 
L 342.16376 321.66569 
L 346.622966 318.634804 
L 350.937877 315.433615 
L 355.103308 312.066964 
L 359.112417 308.541217 
L 362.956954 304.864682 
L 366.633252 301.041867 
L 370.133495 297.081871 
L 373.453442 292.990588 
L 376.586808 288.776897 
L 379.477498 284.527602 
L 373.459711 292.982519 
L 370.144591 297.068769 
L 366.64622 301.0278 
L 362.972106 304.84957 
L 359.132807 308.522513 
L 359.089024 308.562665 
L 359.089024 308.562665 
" style="fill:none;stroke:#ff0000;stroke-linecap:square;stroke-width:1.5;"/>
   </g>
   <g id="line2d_18">
    <path clip-path="url(#pc6288f37da)" d="M 463.536 368.165335 
L 459.693066 371.628458 
L 455.692184 374.934436 
L 451.551949 378.066982 
L 447.294017 381.010228 
L 442.931888 383.755638 
L 438.496829 386.285224 
L 434.000871 388.594494 
L 429.473283 390.671267 
L 424.923103 392.514565 
L 420.376671 394.117037 
L 415.858551 395.47481 
L 411.382271 396.589149 
L 406.959977 397.462074 
L 402.611154 398.095098 
L 398.344997 398.492473 
L 394.177693 398.658428 
L 390.115796 398.598545 
L 386.172426 398.318915 
L 382.358756 397.826889 
L 378.67088 397.127926 
L 375.118314 396.229214 
L 371.702932 395.136738 
L 368.426295 393.856053 
L 365.289687 392.392354 
L 362.289308 390.747699 
L 359.422438 388.923088 
L 356.687338 386.918757 
L 354.083097 384.734447 
L 351.60598 382.366111 
L 349.253938 379.809203 
L 347.020503 377.051513 
L 344.90509 374.084341 
L 342.906338 370.895707 
L 341.020794 367.46666 
L 339.244688 363.771715 
L 337.576859 359.784005 
L 336.017194 355.472998 
L 334.563766 350.794861 
L 333.217946 345.704838 
L 331.982663 340.151894 
L 330.868851 334.108408 
L 329.900709 327.618067 
L 329.123767 320.903998 
L 328.595559 314.436667 
L 328.344911 308.716164 
L 328.350856 303.947223 
L 328.570534 300.055317 
L 328.965561 296.878675 
L 329.508285 294.263923 
L 330.181941 292.084885 
L 330.978424 290.246252 
L 331.897404 288.676071 
L 332.947265 287.318698 
L 334.146562 286.131157 
L 335.523671 285.082535 
L 337.118787 284.151113 
L 338.988983 283.321687 
L 341.210098 282.585896 
L 343.895865 281.937662 
L 347.213347 281.374253 
L 351.444844 280.891475 
L 357.151041 280.477796 
L 365.931907 280.087298 
L 408.485073 278.436694 
L 430.672976 277.511579 
L 440.822536 277.316699 
L 448.728088 277.380652 
L 455.342404 277.65099 
L 461.048579 278.101912 
L 466.05149 278.715771 
L 470.478996 279.478698 
L 474.42022 280.379564 
L 477.931063 281.40633 
L 481.062267 282.550213 
L 483.846449 283.800395 
L 486.319355 285.151125 
L 488.507152 286.596539 
L 490.431061 288.131417 
L 492.110792 289.753365 
L 493.563872 291.46323 
L 494.804994 293.265452 
L 495.843449 295.164431 
L 496.687354 297.1718 
L 497.337733 299.294443 
L 497.794115 301.546207 
L 498.051763 303.944346 
L 498.101297 306.503785 
L 497.929502 309.247074 
L 497.519105 312.192593 
L 496.85009 315.358095 
L 495.900953 318.758482 
L 494.645229 322.417934 
L 493.05932 326.34529 
L 491.117833 330.552114 
L 488.801441 335.034248 
L 486.117397 339.738744 
L 483.124442 344.534456 
L 479.932239 349.23108 
L 476.637419 353.685641 
L 473.269885 357.866263 
L 469.814668 361.802816 
L 466.229397 365.550972 
L 463.543581 368.158202 
L 463.543581 368.158202 
" style="fill:none;stroke:#00bfbf;stroke-linecap:square;stroke-width:1.5;"/>
   </g>
   <g id="line2d_19">
    <path clip-path="url(#pc6288f37da)" d="M 254.161457 426.547431 
L 246.461036 432.531742 
L 240.96838 436.510873 
L 235.6799 440.068176 
L 230.348865 443.385874 
L 224.877083 446.528471 
L 219.220258 449.520395 
L 213.333408 452.381793 
L 207.18045 455.124089 
L 200.72922 457.754379 
L 193.915395 460.290519 
L 186.597916 462.773829 
L 178.380523 465.321489 
L 158.076047 471.479394 
L 156.020316 472.416948 
L 154.884001 473.15995 
L 154.322845 473.771212 
L 154.127585 474.290787 
L 154.181525 474.767522 
L 154.469263 475.256141 
L 155.064569 475.80013 
L 156.100506 476.424618 
L 157.748392 477.141575 
L 160.200983 477.952153 
L 163.638066 478.842533 
L 168.191125 479.783123 
L 173.896453 480.727738 
L 180.714848 481.625924 
L 188.562108 482.431167 
L 197.378968 483.108745 
L 207.183015 483.635509 
L 218.140363 483.997222 
L 230.763993 484.184973 
L 246.793267 484.187431 
L 296.814777 484.042645 
L 331.772622 484.183826 
L 341.38162 483.947547 
L 349.066496 483.542688 
L 355.462761 482.9892 
L 360.829766 482.307822 
L 365.305753 481.522122 
L 368.990518 480.656701 
L 371.968144 479.736557 
L 374.320383 478.785219 
L 376.133153 477.821007 
L 377.489157 476.856891 
L 378.463968 475.900083 
L 379.124269 474.949238 
L 379.522302 473.993377 
L 379.690518 473.013676 
L 379.63964 471.986042 
L 379.357994 470.879363 
L 378.812329 469.661464 
L 377.949885 468.297743 
L 376.696523 466.746839 
L 374.956525 464.960874 
L 372.597976 462.871531 
L 369.441184 460.384643 
L 365.207915 457.345837 
L 359.440435 453.494004 
L 351.336769 448.365905 
L 339.824379 441.358653 
L 326.623958 433.578204 
L 316.014397 427.567723 
L 308.003713 423.273275 
L 301.74013 420.157884 
L 296.673514 417.877835 
L 292.459244 416.217911 
L 288.871425 415.036985 
L 285.740483 414.23522 
L 282.960588 413.748295 
L 280.43713 413.528473 
L 278.096923 413.54572 
L 275.878887 413.783786 
L 273.732808 414.237398 
L 271.587806 414.919523 
L 269.382267 415.857485 
L 267.023813 417.107777 
L 264.378164 418.770087 
L 261.148232 421.076005 
L 256.329156 424.822372 
L 254.169312 426.541182 
L 254.169312 426.541182 
" style="fill:none;stroke:#bf00bf;stroke-linecap:square;stroke-width:1.5;"/>
   </g>
   <g id="patch_3">
    <path d="M 72 504 
L 72 69.12 
" style="fill:none;stroke:#000000;stroke-linecap:square;stroke-linejoin:miter;stroke-width:0.8;"/>
   </g>
   <g id="patch_4">
    <path d="M 518.4 504 
L 518.4 69.12 
" style="fill:none;stroke:#000000;stroke-linecap:square;stroke-linejoin:miter;stroke-width:0.8;"/>
   </g>
   <g id="patch_5">
    <path d="M 72 504 
L 518.4 504 
" style="fill:none;stroke:#000000;stroke-linecap:square;stroke-linejoin:miter;stroke-width:0.8;"/>
   </g>
   <g id="patch_6">
    <path d="M 72 69.12 
L 518.4 69.12 
" style="fill:none;stroke:#000000;stroke-linecap:square;stroke-linejoin:miter;stroke-width:0.8;"/>
   </g>
   <g id="text_16">
    <!-- Node trajectories -->
    <g transform="translate(243.504375 63.12)scale(0.12 -0.12)">
     <defs>
      <path d="M 9.8125 72.90625 
L 23.09375 72.90625 
L 55.421875 11.921875 
L 55.421875 72.90625 
L 64.984375 72.90625 
L 64.984375 0 
L 51.703125 0 
L 19.390625 60.984375 
L 19.390625 0 
L 9.8125 0 
z
" id="DejaVuSans-78"/>
      <path d="M 30.609375 48.390625 
Q 23.390625 48.390625 19.1875 42.75 
Q 14.984375 37.109375 14.984375 27.296875 
Q 14.984375 17.484375 19.15625 11.84375 
Q 23.34375 6.203125 30.609375 6.203125 
Q 37.796875 6.203125 41.984375 11.859375 
Q 46.1875 17.53125 46.1875 27.296875 
Q 46.1875 37.015625 41.984375 42.703125 
Q 37.796875 48.390625 30.609375 48.390625 
z
M 30.609375 56 
Q 42.328125 56 49.015625 48.375 
Q 55.71875 40.765625 55.71875 27.296875 
Q 55.71875 13.875 49.015625 6.21875 
Q 42.328125 -1.421875 30.609375 -1.421875 
Q 18.84375 -1.421875 12.171875 6.21875 
Q 5.515625 13.875 5.515625 27.296875 
Q 5.515625 40.765625 12.171875 48.375 
Q 18.84375 56 30.609375 56 
z
" id="DejaVuSans-111"/>
      <path d="M 45.40625 46.390625 
L 45.40625 75.984375 
L 54.390625 75.984375 
L 54.390625 0 
L 45.40625 0 
L 45.40625 8.203125 
Q 42.578125 3.328125 38.25 0.953125 
Q 33.9375 -1.421875 27.875 -1.421875 
Q 17.96875 -1.421875 11.734375 6.484375 
Q 5.515625 14.40625 5.515625 27.296875 
Q 5.515625 40.1875 11.734375 48.09375 
Q 17.96875 56 27.875 56 
Q 33.9375 56 38.25 53.625 
Q 42.578125 51.265625 45.40625 46.390625 
z
M 14.796875 27.296875 
Q 14.796875 17.390625 18.875 11.75 
Q 22.953125 6.109375 30.078125 6.109375 
Q 37.203125 6.109375 41.296875 11.75 
Q 45.40625 17.390625 45.40625 27.296875 
Q 45.40625 37.203125 41.296875 42.84375 
Q 37.203125 48.484375 30.078125 48.484375 
Q 22.953125 48.484375 18.875 42.84375 
Q 14.796875 37.203125 14.796875 27.296875 
z
" id="DejaVuSans-100"/>
      <path d="M 56.203125 29.59375 
L 56.203125 25.203125 
L 14.890625 25.203125 
Q 15.484375 15.921875 20.484375 11.0625 
Q 25.484375 6.203125 34.421875 6.203125 
Q 39.59375 6.203125 44.453125 7.46875 
Q 49.3125 8.734375 54.109375 11.28125 
L 54.109375 2.78125 
Q 49.265625 0.734375 44.1875 -0.34375 
Q 39.109375 -1.421875 33.890625 -1.421875 
Q 20.796875 -1.421875 13.15625 6.1875 
Q 5.515625 13.8125 5.515625 26.8125 
Q 5.515625 40.234375 12.765625 48.109375 
Q 20.015625 56 32.328125 56 
Q 43.359375 56 49.78125 48.890625 
Q 56.203125 41.796875 56.203125 29.59375 
z
M 47.21875 32.234375 
Q 47.125 39.59375 43.09375 43.984375 
Q 39.0625 48.390625 32.421875 48.390625 
Q 24.90625 48.390625 20.390625 44.140625 
Q 15.875 39.890625 15.1875 32.171875 
z
" id="DejaVuSans-101"/>
      <path d="M 18.3125 70.21875 
L 18.3125 54.6875 
L 36.8125 54.6875 
L 36.8125 47.703125 
L 18.3125 47.703125 
L 18.3125 18.015625 
Q 18.3125 11.328125 20.140625 9.421875 
Q 21.96875 7.515625 27.59375 7.515625 
L 36.8125 7.515625 
L 36.8125 0 
L 27.59375 0 
Q 17.1875 0 13.234375 3.875 
Q 9.28125 7.765625 9.28125 18.015625 
L 9.28125 47.703125 
L 2.6875 47.703125 
L 2.6875 54.6875 
L 9.28125 54.6875 
L 9.28125 70.21875 
z
" id="DejaVuSans-116"/>
      <path d="M 41.109375 46.296875 
Q 39.59375 47.171875 37.8125 47.578125 
Q 36.03125 48 33.890625 48 
Q 26.265625 48 22.1875 43.046875 
Q 18.109375 38.09375 18.109375 28.8125 
L 18.109375 0 
L 9.078125 0 
L 9.078125 54.6875 
L 18.109375 54.6875 
L 18.109375 46.1875 
Q 20.953125 51.171875 25.484375 53.578125 
Q 30.03125 56 36.53125 56 
Q 37.453125 56 38.578125 55.875 
Q 39.703125 55.765625 41.0625 55.515625 
z
" id="DejaVuSans-114"/>
      <path d="M 34.28125 27.484375 
Q 23.390625 27.484375 19.1875 25 
Q 14.984375 22.515625 14.984375 16.5 
Q 14.984375 11.71875 18.140625 8.90625 
Q 21.296875 6.109375 26.703125 6.109375 
Q 34.1875 6.109375 38.703125 11.40625 
Q 43.21875 16.703125 43.21875 25.484375 
L 43.21875 27.484375 
z
M 52.203125 31.203125 
L 52.203125 0 
L 43.21875 0 
L 43.21875 8.296875 
Q 40.140625 3.328125 35.546875 0.953125 
Q 30.953125 -1.421875 24.3125 -1.421875 
Q 15.921875 -1.421875 10.953125 3.296875 
Q 6 8.015625 6 15.921875 
Q 6 25.140625 12.171875 29.828125 
Q 18.359375 34.515625 30.609375 34.515625 
L 43.21875 34.515625 
L 43.21875 35.40625 
Q 43.21875 41.609375 39.140625 45 
Q 35.0625 48.390625 27.6875 48.390625 
Q 23 48.390625 18.546875 47.265625 
Q 14.109375 46.140625 10.015625 43.890625 
L 10.015625 52.203125 
Q 14.9375 54.109375 19.578125 55.046875 
Q 24.21875 56 28.609375 56 
Q 40.484375 56 46.34375 49.84375 
Q 52.203125 43.703125 52.203125 31.203125 
z
" id="DejaVuSans-97"/>
      <path d="M 9.421875 54.6875 
L 18.40625 54.6875 
L 18.40625 -0.984375 
Q 18.40625 -11.421875 14.421875 -16.109375 
Q 10.453125 -20.796875 1.609375 -20.796875 
L -1.8125 -20.796875 
L -1.8125 -13.1875 
L 0.59375 -13.1875 
Q 5.71875 -13.1875 7.5625 -10.8125 
Q 9.421875 -8.453125 9.421875 -0.984375 
z
M 9.421875 75.984375 
L 18.40625 75.984375 
L 18.40625 64.59375 
L 9.421875 64.59375 
z
" id="DejaVuSans-106"/>
      <path d="M 48.78125 52.59375 
L 48.78125 44.1875 
Q 44.96875 46.296875 41.140625 47.34375 
Q 37.3125 48.390625 33.40625 48.390625 
Q 24.65625 48.390625 19.8125 42.84375 
Q 14.984375 37.3125 14.984375 27.296875 
Q 14.984375 17.28125 19.8125 11.734375 
Q 24.65625 6.203125 33.40625 6.203125 
Q 37.3125 6.203125 41.140625 7.25 
Q 44.96875 8.296875 48.78125 10.40625 
L 48.78125 2.09375 
Q 45.015625 0.34375 40.984375 -0.53125 
Q 36.96875 -1.421875 32.421875 -1.421875 
Q 20.0625 -1.421875 12.78125 6.34375 
Q 5.515625 14.109375 5.515625 27.296875 
Q 5.515625 40.671875 12.859375 48.328125 
Q 20.21875 56 33.015625 56 
Q 37.15625 56 41.109375 55.140625 
Q 45.0625 54.296875 48.78125 52.59375 
z
" id="DejaVuSans-99"/>
      <path d="M 9.421875 54.6875 
L 18.40625 54.6875 
L 18.40625 0 
L 9.421875 0 
z
M 9.421875 75.984375 
L 18.40625 75.984375 
L 18.40625 64.59375 
L 9.421875 64.59375 
z
" id="DejaVuSans-105"/>
      <path d="M 44.28125 53.078125 
L 44.28125 44.578125 
Q 40.484375 46.53125 36.375 47.5 
Q 32.28125 48.484375 27.875 48.484375 
Q 21.1875 48.484375 17.84375 46.4375 
Q 14.5 44.390625 14.5 40.28125 
Q 14.5 37.15625 16.890625 35.375 
Q 19.28125 33.59375 26.515625 31.984375 
L 29.59375 31.296875 
Q 39.15625 29.25 43.1875 25.515625 
Q 47.21875 21.78125 47.21875 15.09375 
Q 47.21875 7.46875 41.1875 3.015625 
Q 35.15625 -1.421875 24.609375 -1.421875 
Q 20.21875 -1.421875 15.453125 -0.5625 
Q 10.6875 0.296875 5.421875 2 
L 5.421875 11.28125 
Q 10.40625 8.6875 15.234375 7.390625 
Q 20.0625 6.109375 24.8125 6.109375 
Q 31.15625 6.109375 34.5625 8.28125 
Q 37.984375 10.453125 37.984375 14.40625 
Q 37.984375 18.0625 35.515625 20.015625 
Q 33.0625 21.96875 24.703125 23.78125 
L 21.578125 24.515625 
Q 13.234375 26.265625 9.515625 29.90625 
Q 5.8125 33.546875 5.8125 39.890625 
Q 5.8125 47.609375 11.28125 51.796875 
Q 16.75 56 26.8125 56 
Q 31.78125 56 36.171875 55.265625 
Q 40.578125 54.546875 44.28125 53.078125 
z
" id="DejaVuSans-115"/>
     </defs>
     <use xlink:href="#DejaVuSans-78"/>
     <use x="74.804688" xlink:href="#DejaVuSans-111"/>
     <use x="135.986328" xlink:href="#DejaVuSans-100"/>
     <use x="199.462891" xlink:href="#DejaVuSans-101"/>
     <use x="260.986328" xlink:href="#DejaVuSans-32"/>
     <use x="292.773438" xlink:href="#DejaVuSans-116"/>
     <use x="331.982422" xlink:href="#DejaVuSans-114"/>
     <use x="373.095703" xlink:href="#DejaVuSans-97"/>
     <use x="434.375" xlink:href="#DejaVuSans-106"/>
     <use x="462.158203" xlink:href="#DejaVuSans-101"/>
     <use x="523.681641" xlink:href="#DejaVuSans-99"/>
     <use x="578.662109" xlink:href="#DejaVuSans-116"/>
     <use x="617.871094" xlink:href="#DejaVuSans-111"/>
     <use x="679.052734" xlink:href="#DejaVuSans-114"/>
     <use x="720.166016" xlink:href="#DejaVuSans-105"/>
     <use x="747.949219" xlink:href="#DejaVuSans-101"/>
     <use x="809.472656" xlink:href="#DejaVuSans-115"/>
    </g>
   </g>
  </g>
 </g>
 <defs>
  <clipPath id="pc6288f37da">
   <rect height="434.88" width="446.4" x="72" y="69.12"/>
  </clipPath>
 </defs>
</svg>
